<svg width="14" height="14" viewBox="0 0 14 14" fill="none" xmlns="http://www.w3.org/2000/svg">
<path d="M5.6956 0.000553316C4.35458 0.0214743 3.07408 0.59363 2.12598 1.59554C1.15955 2.6165 0.616638 4.00108 0.616638 5.44478C0.616638 6.88848 1.15955 8.27307 2.12598 9.29402C3.00259 10.2183 4.16499 10.7782 5.40046 10.8714C6.63593 10.9645 7.86186 10.5847 8.8539 9.80138L12.8291 14L13.8704 12.9002L9.89372 8.70008C10.6352 7.65258 10.9948 6.35818 10.9068 5.05362C10.8189 3.74905 10.2893 2.52153 9.4148 1.59554C8.92738 1.08047 8.34708 0.673917 7.70824 0.39995C7.0694 0.125984 6.38502 -0.00982865 5.6956 0.000553316V0.000553316ZM5.8236 1.55605C6.78155 1.57093 7.69627 1.97962 8.37354 2.69533C9.06384 3.42458 9.45164 4.41357 9.45164 5.44478C9.45164 6.476 9.06384 7.46498 8.37354 8.19424C7.68309 8.92334 6.74673 9.33293 5.77039 9.33293C4.79405 9.33293 3.85769 8.92334 3.16724 8.19424C2.47693 7.46498 2.08914 6.476 2.08914 5.44478C2.08914 4.41357 2.47693 3.42458 3.16724 2.69533C3.51537 2.32744 3.92984 2.03706 4.38611 1.84137C4.84239 1.64568 5.33119 1.54866 5.8236 1.55605V1.55605Z" fill="white"/>
</svg>
